<?xml version="1.0" encoding="utf-8"?>
<!-- Generator: Adobe Illustrator 15.1.0, SVG Export Plug-In  -->
<!DOCTYPE svg PUBLIC "-//W3C//DTD SVG 1.1//EN" "http://www.w3.org/Graphics/SVG/1.1/DTD/svg11.dtd" [
	<!ENTITY ns_flows "http://ns.adobe.com/Flows/1.0/">
]>
<svg version="1.1"
	 xmlns="http://www.w3.org/2000/svg" xmlns:xlink="http://www.w3.org/1999/xlink" xmlns:a="http://ns.adobe.com/AdobeSVGViewerExtensions/3.0/"
	 x="0px" y="0px" width="133px" height="129px" viewBox="0.001 0 133 129"
	 overflow="visible" enable-background="new 0.001 0 133 129" xml:space="preserve">
<defs>
</defs>
<path fill="#F47D30" d="M14.712,113.816c-1.179,0.17-2.895,0.439-6.532,0.439c-4.342,0-8.18-1.107-8.18-7.234v-11.18
	c0-6.125,3.871-7.201,8.214-7.201c3.635,0,5.319,0.267,6.498,0.434c0.47,0.068,0.674,0.232,0.674,0.672v3.131
	c0,0.372-0.304,0.676-0.674,0.676H7.878c-1.582,0-2.155,0.536-2.155,2.29v3.063h8.719c0.37,0,0.671,0.301,0.671,0.673v3.2
	c0,0.371-0.302,0.67-0.671,0.67H5.724v3.572c0,1.746,0.573,2.289,2.155,2.289h6.834c0.37,0,0.674,0.301,0.674,0.67v3.129
	C15.386,113.549,15.182,113.746,14.712,113.816z"/>
<path fill="#F47D30" d="M33.33,113.816c-1.114,0.24-3.703,0.439-5.49,0.439c-4.342,0-8.211-1.107-8.211-7.234V89.615
	c0-0.37,0.302-0.672,0.669-0.672h4.412c0.371,0,0.674,0.302,0.674,0.672v17.406c0,1.746,0.573,2.289,2.155,2.289h5.792
	c0.367,0,0.673,0.301,0.673,0.67v3.129C34.003,113.549,33.798,113.716,33.33,113.816z"/>
<path fill="#F47D30" d="M51.168,113.816c-1.173,0.17-2.893,0.439-6.528,0.439c-4.341,0-8.182-1.107-8.182-7.234v-11.18
	c0-6.125,3.875-7.201,8.216-7.201c3.637,0,5.32,0.267,6.494,0.434c0.475,0.068,0.674,0.232,0.674,0.672v3.131
	c0,0.372-0.302,0.676-0.674,0.676h-6.833c-1.581,0-2.153,0.536-2.153,2.29v3.063H50.9c0.371,0,0.675,0.301,0.675,0.673v3.2
	c0,0.371-0.304,0.67-0.675,0.67h-8.719v3.572c0,1.746,0.572,2.289,2.153,2.289h6.833c0.372,0,0.674,0.301,0.674,0.67v3.129
	C51.841,113.549,51.643,113.746,51.168,113.816z"/>
<path fill="#F47D30" d="M75.842,89.648l-5.012,20.869c-0.774,3.229-3.233,3.738-5.555,3.738c-2.323,0-4.817-0.511-5.591-3.738
	l-5.016-20.869c0-0.066-0.03-0.101-0.03-0.17c0-0.304,0.267-0.535,0.605-0.535h4.678c0.336,0,0.606,0.268,0.675,0.604l4.203,19.425
	c0.071,0.37,0.173,0.498,0.476,0.498c0.301,0,0.405-0.128,0.47-0.498l4.21-19.425c0.065-0.338,0.3-0.604,0.639-0.604h4.714
	c0.336,0,0.571,0.199,0.571,0.535C75.879,89.516,75.842,89.582,75.842,89.648z"/>
<path fill="#F47D30" d="M96.245,113.954h-4.71c-0.335,0-0.61-0.269-0.673-0.604l-1.215-5.518h-6.9l-1.211,5.518
	c-0.069,0.338-0.342,0.604-0.676,0.604h-4.711c-0.338,0-0.572-0.208-0.572-0.535c0-0.041,0.031-0.103,0.031-0.172l5.015-20.876
	c0.778-3.229,3.271-3.73,5.593-3.73c2.317,0,4.778,0.504,5.555,3.73l5.019,20.876c0,0.069,0.03,0.131,0.03,0.172
	C96.819,113.746,96.583,113.954,96.245,113.954z M86.653,93.917c-0.071-0.326-0.141-0.496-0.438-0.496
	c-0.305,0-0.403,0.17-0.471,0.496l-2.056,9.299h5.017L86.653,93.917z"/>
<path fill="#F47D30" d="M113.317,93.689h-5.455v19.586c0,0.375-0.303,0.679-0.674,0.679h-4.41c-0.368,0-0.674-0.304-0.674-0.679
	V93.689h-5.487c-0.372,0-0.675-0.27-0.675-0.641v-3.468c0-0.371,0.303-0.64,0.675-0.64h16.7c0.367,0,0.703,0.269,0.703,0.64v3.468
	C114.021,93.421,113.685,93.689,113.317,93.689z"/>
<path fill="#F47D30" d="M131.053,113.816c-1.173,0.17-2.894,0.439-6.526,0.439c-4.348,0-8.184-1.107-8.184-7.234v-11.18
	c0-6.125,3.871-7.201,8.215-7.201c3.635,0,5.322,0.267,6.495,0.434c0.472,0.068,0.675,0.232,0.675,0.672v3.131
	c0,0.372-0.303,0.676-0.675,0.676h-6.831c-1.584,0-2.156,0.536-2.156,2.29v3.063h8.722c0.37,0,0.674,0.301,0.674,0.673v3.2
	c0,0.371-0.304,0.67-0.674,0.67h-8.722v3.572c0,1.746,0.572,2.289,2.156,2.289h6.831c0.372,0,0.675,0.301,0.675,0.67v3.129
	C131.728,113.549,131.524,113.746,131.053,113.816z"/>
<path fill="#F47D30" d="M74.046,63.205c0,1.376-1.105,2.484-2.477,2.484H58.684c-1.369,0-2.483-1.108-2.483-2.484V50.328
	c0-1.373,1.114-2.485,2.483-2.485h12.885c1.371,0,2.478,1.112,2.478,2.485L74.046,63.205L74.046,63.205z"/>
<path fill="#F47D30" d="M74.046,39.29c0,1.364-1.105,2.477-2.477,2.477H58.684c-1.369,0-2.483-1.112-2.483-2.477V26.399
	c0-1.369,1.114-2.477,2.483-2.477h12.885c1.371,0,2.478,1.107,2.478,2.477L74.046,39.29L74.046,39.29z"/>
<path fill="#F47D30" d="M74.046,15.362c0,1.368-1.105,2.483-2.477,2.483H58.684c-1.369,0-2.483-1.115-2.483-2.483V2.478
	c0-1.37,1.114-2.478,2.483-2.478h12.885c1.371,0,2.478,1.108,2.478,2.478L74.046,15.362L74.046,15.362z"/>
</svg>
