<?xml version="1.0" encoding="utf-8"?>
<!-- Generator: Adobe Illustrator 19.1.0, SVG Export Plug-In . SVG Version: 6.00 Build 0)  -->
<svg version="1.1" id="Layer_1" xmlns="http://www.w3.org/2000/svg" xmlns:xlink="http://www.w3.org/1999/xlink" x="0px" y="0px"
	 viewBox="-104 267 403 259" style="enable-background:new -104 267 403 259;" xml:space="preserve">
<style type="text/css">
	.st0{fill:#ED1C24;}
	.st1{fill:#231F20;}
</style>
<g>
	<path class="st0" d="M-64.7,387.9c0,0,154.6-80,298.2,51.9l0,0l-118.3,0.1C40.3,356.4-63.6,390-63.6,390L-64.7,387.9L-64.7,387.9z"
		/>
	<polygon class="st0" points="149.1,365 68.7,440.3 44.9,440.3 137.2,353.7 149.1,365 	"/>
	<polygon class="st0" points="127.2,344.4 115.2,333.2 1.8,440.3 25.2,440.3 127.2,344.4 	"/>
	<polygon class="st0" points="105.4,323.9 94.1,313.3 -42.2,440.3 -18.5,440.3 105.4,323.9 	"/>
	<polygon class="st1" points="-99.5,482.5 -99.5,454.4 -93,454.4 -93,465.2 -72.5,465.2 -72.5,454.4 -65.9,454.4 -65.9,482.5 
		-72.5,482.5 -72.5,470.4 -93,470.4 -93,482.5 -99.5,482.5 	"/>
	<polygon class="st1" points="-52.7,482.5 -52.7,454.4 -46.1,454.4 -46.1,482.5 -52.7,482.5 	"/>
	<path class="st1" d="M-6.5,459.4H-27v17.8h20.4v-6.3h-10.7v-4.7h17v9.7c0,2.6-0.5,4.4-1.5,5.3c-1,0.9-2.8,1.4-5.5,1.4h-19.4
		c-2.7,0-4.5-0.5-5.5-1.4c-1-0.9-1.5-2.7-1.5-5.3V461c0-2.6,0.5-4.4,1.5-5.3c1-0.9,2.8-1.4,5.5-1.4h19.4c2.6,0,4.4,0.4,5.4,1.3
		c1,0.9,1.5,2.6,1.5,5.1v0.7l-6.3,1.1V459.4L-6.5,459.4z"/>
	<polygon class="st1" points="13.7,482.5 13.7,454.4 20.2,454.4 20.2,465.2 40.7,465.2 40.7,454.4 47.3,454.4 47.3,482.5 
		40.7,482.5 40.7,470.4 20.2,470.4 20.2,482.5 13.7,482.5 	"/>
	<path class="st1" d="M96.1,459.2H77.7v6.1h17.5c2.7,0,4.5,0.5,5.5,1.4c1,0.9,1.5,2.7,1.5,5.3v3.9c0,2.6-0.5,4.4-1.5,5.3
		c-1,0.9-2.8,1.4-5.5,1.4H78c-2.7,0-4.5-0.5-5.5-1.4c-1-0.9-1.5-2.7-1.5-5.3v-0.8l5.8-1.2v3.3h19.9v-6.4H79c-2.7,0-4.5-0.5-5.5-1.4
		c-1-0.9-1.5-2.7-1.5-5.3V461c0-2.6,0.5-4.4,1.5-5.3c1-0.9,2.8-1.4,5.5-1.4h15.9c2.6,0,4.4,0.4,5.4,1.3c1,0.9,1.5,2.5,1.5,4.8v0.6
		l-5.7,1.4V459.2L96.1,459.2z"/>
	<polygon class="st1" points="114.7,482.5 114.7,454.4 121.3,454.4 121.3,482.5 114.7,482.5 	"/>
	<polygon class="st1" points="135.6,482.5 135.6,454.4 164.4,454.4 164.4,459.1 142.2,459.1 142.2,465.5 155.1,465.5 155.1,470.3 
		142.2,470.3 142.2,477.2 164.6,477.2 164.6,482.5 135.6,482.5 	"/>
	<path class="st1" d="M176.6,482.5v-28.1h24.1c4.2,0,6.3,1.8,6.3,5.5v6.6c0,3.6-2.1,5.5-6.3,5.5H197l13,10.6h-9.4l-11.3-10.6h-6.2
		v10.6H176.6L176.6,482.5z M197.8,459.1h-14.7v8h14.7c1,0,1.7-0.1,2.1-0.3c0.5-0.3,0.8-1,0.8-1.9v-3.4c0-1-0.3-1.6-0.8-1.9
		C199.5,459.2,198.8,459.1,197.8,459.1L197.8,459.1z"/>
	<path class="st1" d="M220.3,482.5v-28.1h24.1c4.2,0,6.3,1.8,6.3,5.5v6.6c0,3.6-2.1,5.5-6.3,5.5h-3.7l13,10.6h-9.4L233,471.9h-6.2
		v10.6H220.3L220.3,482.5z M241.5,459.1h-14.7v8h14.7c1,0,1.7-0.1,2.1-0.3c0.5-0.3,0.8-1,0.8-1.9v-3.4c0-1-0.3-1.6-0.8-1.9
		C243.2,459.2,242.5,459.1,241.5,459.1L241.5,459.1z"/>
	<path class="st1" d="M253.2,482.5l15.9-28.1h6.3l16.1,28.1h-7.4l-3.4-6.1H263l-3.3,6.1H253.2L253.2,482.5z M265.8,471.3h12.3
		l-6-11.5L265.8,471.3L265.8,471.3z"/>
	<path class="st1" d="M293.4,461.2c-0.8,0.8-1.8,1.2-2.9,1.2c-1.1,0-2.1-0.4-2.9-1.2c-0.8-0.8-1.2-1.8-1.2-2.9
		c0-1.1,0.4-2.1,1.2-2.9c0.8-0.8,1.7-1.2,2.9-1.2c1.1,0,2.1,0.4,2.9,1.2c0.8,0.8,1.2,1.7,1.2,2.9
		C294.6,459.4,294.2,460.4,293.4,461.2L293.4,461.2z M288,455.8c-0.7,0.7-1,1.5-1,2.5c0,1,0.3,1.8,1,2.5c0.7,0.7,1.5,1,2.5,1
		c1,0,1.8-0.3,2.5-1c0.7-0.7,1-1.5,1-2.5c0-1-0.3-1.8-1-2.5c-0.7-0.7-1.5-1-2.5-1C289.5,454.8,288.7,455.2,288,455.8L288,455.8z
		 M290.4,456.1c0.6,0,1,0.1,1.2,0.2c0.5,0.2,0.7,0.6,0.7,1.1c0,0.4-0.1,0.7-0.4,0.9c-0.2,0.1-0.4,0.2-0.6,0.2
		c0.3,0.1,0.6,0.2,0.8,0.4c0.2,0.2,0.2,0.5,0.2,0.7v0.3c0,0.1,0,0.2,0,0.3c0,0.1,0,0.2,0,0.2l0,0.1h-0.7c0,0,0,0,0,0c0,0,0,0,0,0
		l0-0.1V460c0-0.5-0.1-0.9-0.4-1c-0.2-0.1-0.5-0.1-0.9-0.1h-0.6v1.8h-0.8v-4.5H290.4L290.4,456.1z M291.3,456.8
		c-0.2-0.1-0.5-0.2-1-0.2h-0.7v1.6h0.7c0.3,0,0.6,0,0.8-0.1c0.3-0.1,0.5-0.4,0.5-0.7C291.6,457.1,291.5,456.9,291.3,456.8
		L291.3,456.8z"/>
</g>
</svg>
