<?xml version="1.0" encoding="utf-8"?>
<!-- Generator: Adobe Illustrator 17.1.0, SVG Export Plug-In . SVG Version: 6.00 Build 0)  -->
<!DOCTYPE svg PUBLIC "-//W3C//DTD SVG 1.1//EN" "http://www.w3.org/Graphics/SVG/1.1/DTD/svg11.dtd">
<svg version="1.1" id="Layer_1" xmlns="http://www.w3.org/2000/svg" xmlns:xlink="http://www.w3.org/1999/xlink" x="0px" y="0px"
	 viewBox="0 0 403 259" enable-background="new 0 0 403 259" xml:space="preserve">
<g>
	<g>
		<g>
			<g>
				<path fill="#EC1E24" d="M217.4,29c-1.4,0.2-2.6,5-5.1,7.5c-1.8,1.8-4.1,1.7-5.3,4c-0.5,0.8-0.3,2.2-0.8,3.6
					c-1.1,2.8-4.6,2.9-4.7,5.9c0,3.2,3,3.9,5.6,6.1c2.1,1.8,2.3,3.1,4.7,3.9c2.1,0.7,5.3-1.6,8.1-0.8c2.3,0.7,4.6,1.1,5.1,3.6
					c0.5,2.2,0,5.6-2.8,5.3c-0.9-0.1-5.1-1.5-10.2-1c-6.1,0.7-13.1,2.7-13.8,9.5c-0.4,3.8,4.3,8.3,8.8,7.4c3.2-0.6,1.7-4.3,3.4-6.1
					c2.2-2.4,15,8.1,26.8,8.1c5,0,8.7-1.3,12.4-5.2c0.4-0.3,0.8-0.9,1.3-1c0.5,0.1,1.4,0.5,1.7,0.8c9.6,7.6,16.8,23,51.7,23.2
					c5,0,10.6,2.3,15.1,6.5c4.1,3.8,6.5,9.7,8.8,15.6c3.5,8.9,9.8,17.6,19.3,27.3c0.5,0.5,8.4,6.7,9,7c0.1,0.1,0.7,1.5,0.5,2.2
					c-0.2,5.9-1.1,22.7,11.5,23.4c3.1,0.2,2.3-2,2.3-3.5c-0.1-2.9-0.6-5.8,1-8.8c2.1-4.1-4.5-6.1-4.3-15c0.1-6.7-5.5-5.6-8.4-10.6
					c-1.6-3-3.1-4.5-3-8.1c0.7-20.3-4.2-33.7-6.8-36.9c-1.9-2.5-3.5-3.5-1.8-4.6c10.5-6.9,12.9-13.4,12.9-13.4
					c5.6-13.2,10.6-25.1,17.5-30.4c1.4-1.1,4.9-3.8,7.1-4.8c6.5-3.1,9.9-4.9,11.8-6.7c3-2.9,5.3-9,2.5-12.6
					c-3.5-4.5-9.7-0.9-12.4,0.6c-19.3,11.5-22.2,31.7-28.8,43.3c-5.3,9.3-14,16.1-21.8,16.7c-5.8,0.4-12.1-0.8-18.3-3.5
					c-15.2-6.7-23.5-15.3-25.5-16.8c-4.1-3.2-35.7-34.2-61.4-35.5c0,0-3.1-6.4-4-6.5c-1.8-0.2-3.8,3.8-5.1,4.3
					C220.8,33.6,218.6,28.7,217.4,29z"/>
			</g>
			<path fill="#EC1E24" d="M104.4,214.5c-2.4-0.1-4.4-2-4.4-4.5v-80.1H73.6v88.2c0,4.3,3.5,7.8,7.8,7.8h46.1c4.3,0,7.8-3.5,7.8-7.8
				v-88.2h-26.4V210C108.9,212.4,106.8,214.4,104.4,214.5z"/>
			<path fill="#EC1E24" d="M192.7,129.9h-39.9c-4.7,0-8.6,3.9-8.6,8.6v87.4h26.4v-80.1c0-2.5,2-4.4,4.5-4.4c2.4,0,4.4,1.9,4.5,4.4
				v80.2h26.3v-80.2c0-2.5,2.1-4.4,4.5-4.4s4.4,1.9,4.5,4.4v80.1h26.4v-87.4c0-4.7-3.8-8.6-8.6-8.6H192.7z"/>
			<path fill="#EC1E24" d="M56,201.8H29.4V226H3v-96h53.2c4.8,0,8.5,3.9,8.5,8.6v54.6C64.7,198,60.8,201.8,56,201.8z M38.3,145.9
				c0-2.7-2.1-4.5-4.5-4.5h-4.5V190h4.5c2.4,0,4.5-1.9,4.5-4.6V145.9z"/>
			<g>
				<path fill="#EC1E24" d="M343.5,216.5c0,6.5-5.3,11.8-11.7,11.8c-6.5,0-11.8-5.3-11.8-11.8c0-6.5,5.3-11.9,11.6-11.9
					C338.3,204.7,343.5,209.9,343.5,216.5z M331.7,206.5c-5.3,0-9.7,4.6-9.7,10.1c0,5.6,4.4,10.1,9.9,10.1c5.4,0,9.8-4.5,9.8-10.1
					c0-5.6-4.4-10.1-9.8-10.1H331.7z"/>
				<path fill="#EC1E24" d="M337.4,223.4h-3.2l-4.1-5.4v5.4h-2.6v-13.6h2.8c3.7,0,5.6,1.4,5.6,4.1c0,1.8-1.1,3.3-2.7,3.8l-0.2,0.1
					L337.4,223.4z M330.6,215.8c1.8,0,2.8-0.6,2.8-1.9c0-1.2-0.9-1.8-2.7-1.8h-0.5v3.7H330.6z"/>
			</g>
			<path fill="#EC1E24" d="M285.4,225.9v-24h-8.9v24h-26.4v-87.4c0-4.7,3.9-8.6,8.6-8.6h44.5c4.8,0,8.6,3.9,8.6,8.6v87.4H285.4z
				 M285.4,190v-44.2c-0.1-2.5-2-4.4-4.5-4.4c-2.5,0-4.4,2-4.5,4.4V190H285.4z"/>
		</g>
	</g>
</g>
</svg>
