<?xml version="1.0" encoding="utf-8"?>
<!-- Generator: Adobe Illustrator 15.1.0, SVG Export Plug-In  -->
<!DOCTYPE svg PUBLIC "-//W3C//DTD SVG 1.1//EN" "http://www.w3.org/Graphics/SVG/1.1/DTD/svg11.dtd" [
	<!ENTITY ns_flows "http://ns.adobe.com/Flows/1.0/">
]>
<svg version="1.1"
	 xmlns="http://www.w3.org/2000/svg" xmlns:xlink="http://www.w3.org/1999/xlink" xmlns:a="http://ns.adobe.com/AdobeSVGViewerExtensions/3.0/"
	 x="0px" y="0px" width="403px" height="259px" viewBox="-0.129 -0.768 403 259"
	 overflow="visible" enable-background="new -0.129 -0.768 403 259" xml:space="preserve">
<defs>
</defs>
<path fill="#C9CACC" d="M400.445,125.029c-1.211-1.219-2.677-1.825-4.381-1.825c-1.719,0-3.185,0.606-4.395,1.817
	c-1.214,1.213-1.82,2.682-1.82,4.393c0,1.719,0.606,3.19,1.827,4.398c1.203,1.211,2.677,1.814,4.388,1.814
	c1.704,0,3.17-0.607,4.381-1.82c1.22-1.215,1.834-2.676,1.834-4.393C402.279,127.703,401.665,126.242,400.445,125.029z
	 M399.58,132.947c-0.977,0.977-2.143,1.466-3.516,1.466c-1.365,0-2.547-0.489-3.513-1.468c-0.983-0.983-1.474-2.153-1.474-3.531
	c0-1.36,0.49-2.535,1.466-3.518c0.974-0.981,2.14-1.469,3.521-1.469c1.373,0,2.539,0.488,3.516,1.461
	c0.988,0.983,1.471,2.152,1.471,3.525C401.051,130.792,400.568,131.975,399.58,132.947z M397.605,130.271
	c-0.152-0.171-0.367-0.307-0.65-0.419c0.553-0.064,0.98-0.273,1.312-0.614c0.308-0.34,0.462-0.748,0.462-1.215
	c0-0.47-0.125-0.865-0.385-1.182c-0.26-0.323-0.561-0.514-0.898-0.591c-0.346-0.064-0.914-0.101-1.711-0.101h-2.338v6.592h1.342
	v-2.708h0.244c0.438,0,0.783,0.104,1.043,0.314c0.254,0.209,0.553,0.656,0.906,1.335l0.545,1.059h1.657l-0.774-1.319
	C398.014,130.832,397.761,130.438,397.605,130.271z M396.555,128.942c-0.214,0.028-0.645,0.043-1.279,0.043h-0.537v-1.791h0.529
	c0.598,0,1.012,0.008,1.232,0.034c0.225,0.028,0.424,0.116,0.584,0.269c0.154,0.163,0.237,0.348,0.237,0.581
	c0,0.229-0.083,0.428-0.229,0.581C396.947,128.816,396.762,128.913,396.555,128.942z"/>
<polygon fill="#717073" points="37.509,254.2 37.509,237.743 34.67,237.743 34.67,235.002 52.914,235.002 52.914,241.609 
	50.205,241.609 50.205,237.743 40.823,237.743 40.823,244.279 48.985,244.279 48.985,247.018 40.823,247.018 40.823,254.2 
	50.205,254.2 50.205,250.218 52.914,250.218 52.914,256.954 34.67,256.954 34.67,254.2 "/>
<path fill="#717073" d="M58.346,256.954v-7.973h2.746v1.939c1.312,2.389,3.039,3.578,5.165,3.578c1.082,0,2.003-0.322,2.746-0.984
	c0.744-0.666,1.12-1.533,1.12-2.613c0-1.037-0.307-1.788-0.906-2.241c-0.621-0.462-1.778-0.912-3.466-1.365
	c-1.972-0.53-3.422-1.022-4.375-1.497c-0.942-0.466-1.702-1.128-2.271-2.003c-0.561-0.867-0.837-1.9-0.837-3.084
	c0-1.84,0.606-3.313,1.843-4.411c1.219-1.097,2.753-1.641,4.609-1.641c1.757,0,3.391,0.567,4.896,1.688v-1.458h2.685v6.658h-2.685
	v-1.531c-1.127-1.697-2.67-2.549-4.651-2.549c-1.203,0-2.116,0.284-2.77,0.836c-0.65,0.553-0.965,1.211-0.965,1.979
	c0,0.589,0.167,1.112,0.49,1.557c0.323,0.453,0.745,0.774,1.243,0.988c0.515,0.209,1.511,0.501,2.993,0.875
	c1.941,0.498,3.345,0.976,4.212,1.413c0.875,0.445,1.626,1.165,2.255,2.185c0.636,1.031,0.951,2.204,0.951,3.524
	c0,1.871-0.667,3.421-1.987,4.641c-1.32,1.229-2.954,1.835-4.895,1.835c-2.003,0-3.798-0.723-5.402-2.167v1.821H58.346z"/>
<polygon fill="#717073" points="85.237,254.2 85.237,237.743 80.718,237.743 80.718,243.344 77.995,243.344 77.995,235.002 
	95.785,235.002 95.785,243.344 93.07,243.344 93.07,237.743 88.551,237.743 88.551,254.2 91.413,254.2 91.413,256.954 
	82.437,256.954 82.437,254.2 "/>
<path fill="#717073" d="M113.892,249.227h-7.909l-1.673,4.974h2.662v2.754h-8.647V254.2h2.656l5.991-16.726h-2.654v-2.473h11.224
	v2.473h-2.732l6.131,16.726h2.456v2.754h-8.595V254.2h2.726L113.892,249.227z M113.064,246.657l-2.923-9.183h-0.292l-3.045,9.183
	H113.064z"/>
<path fill="#717073" d="M127.803,254.2v-16.457h-2.687v-2.741h7.296c2.018,0,3.531,0.116,4.527,0.354
	c1.005,0.245,1.886,0.852,2.663,1.833c0.767,0.99,1.142,2.142,1.142,3.47c0,1.028-0.215,1.939-0.683,2.76
	c-0.452,0.821-1.128,1.444-2.002,1.866c1.213,0.421,2.148,1.12,2.808,2.095c0.661,0.976,0.982,2.08,0.982,3.337
	c0,1.089-0.238,2.072-0.737,2.955c-0.483,0.88-1.128,1.57-1.941,2.047c-0.798,0.485-1.711,0.812-2.662,0.976
	c-0.967,0.174-2.278,0.261-3.935,0.261h-7.459V254.2H127.803z M131.124,244.135h2.063c1.589,0,2.686-0.276,3.308-0.83
	c0.621-0.559,0.934-1.365,0.934-2.438c0-2.08-1.404-3.124-4.242-3.124h-2.063V244.135z M131.124,254.2h1.243
	c1.627,0,2.83-0.079,3.584-0.237c0.759-0.163,1.373-0.553,1.856-1.151c0.482-0.614,0.713-1.389,0.713-2.333
	c0-0.859-0.224-1.589-0.683-2.172c-0.46-0.582-1.052-0.976-1.758-1.167c-0.728-0.198-1.749-0.29-3.069-0.29h-1.887V254.2z"/>
<polygon fill="#717073" points="149.759,254.2 149.759,237.743 146.921,237.743 146.921,235.002 155.904,235.002 155.904,237.743 
	153.205,237.743 153.205,254.2 159.925,254.2 159.925,246.733 163.017,246.733 163.017,256.954 146.921,256.954 146.921,254.2 "/>
<polygon fill="#717073" points="169.929,254.2 169.929,237.743 167.56,237.743 167.56,235.002 175.615,235.002 175.615,237.743 
	173.236,237.743 173.236,254.2 175.615,254.2 175.615,256.954 167.56,256.954 167.56,254.2 "/>
<path fill="#717073" d="M181.008,256.954v-7.973h2.74v1.939c1.319,2.389,3.046,3.578,5.17,3.578c1.083,0,1.995-0.322,2.739-0.984
	c0.752-0.666,1.12-1.533,1.12-2.613c0-1.037-0.306-1.788-0.904-2.241c-0.622-0.462-1.773-0.912-3.461-1.365
	c-1.973-0.53-3.423-1.022-4.372-1.497c-0.953-0.466-1.704-1.128-2.272-2.003c-0.56-0.867-0.835-1.9-0.835-3.084
	c0-1.84,0.622-3.313,1.832-4.411c1.221-1.097,2.762-1.641,4.613-1.641c1.764,0,3.392,0.567,4.901,1.688v-1.458h2.694v6.658h-2.694
	v-1.531c-1.128-1.697-2.669-2.549-4.656-2.549c-1.205,0-2.118,0.284-2.762,0.836c-0.645,0.553-0.968,1.211-0.968,1.979
	c0,0.589,0.163,1.112,0.492,1.557c0.321,0.453,0.745,0.774,1.243,0.988c0.514,0.209,1.513,0.501,2.993,0.875
	c1.941,0.498,3.329,0.976,4.21,1.413c0.868,0.445,1.628,1.165,2.256,2.185c0.63,1.031,0.945,2.204,0.945,3.524
	c0,1.871-0.661,3.421-1.979,4.641c-1.319,1.229-2.954,1.835-4.902,1.835c-1.994,0-3.799-0.723-5.401-2.167v1.821H181.008z"/>
<polygon fill="#717073" points="203.639,254.2 203.639,237.743 201.147,237.743 201.147,235.002 209.532,235.002 209.532,237.743 
	206.945,237.743 206.945,244.026 216.498,244.026 216.498,237.743 213.928,237.743 213.928,235.002 222.32,235.002 222.32,237.743 
	219.812,237.743 219.812,254.2 222.32,254.2 222.32,256.954 213.928,256.954 213.928,254.2 216.498,254.2 216.498,246.765 
	206.945,246.765 206.945,254.2 209.532,254.2 209.532,256.954 201.147,256.954 201.147,254.2 "/>
<polygon fill="#717073" points="230.115,254.2 230.115,237.743 227.269,237.743 227.269,235.002 245.521,235.002 245.521,241.609 
	242.813,241.609 242.813,237.743 233.43,237.743 233.43,244.279 241.593,244.279 241.593,247.018 233.43,247.018 233.43,254.2 
	242.813,254.2 242.813,250.218 245.521,250.218 245.521,256.954 227.269,256.954 227.269,254.2 "/>
<path fill="#717073" d="M253.225,254.2v-16.457h-2.985v-2.741h8.501c2.339,0,4.144,0.116,5.418,0.354
	c1.279,0.245,2.502,0.79,3.688,1.642c1.19,0.852,2.134,2.019,2.847,3.517c0.707,1.485,1.066,3.188,1.066,5.095
	c0,2.161-0.344,4.048-1.035,5.645c-0.674,1.596-1.572,2.792-2.677,3.582c-1.112,0.792-2.434,1.337-3.976,1.651
	c-1.527,0.305-3.477,0.468-5.838,0.468h-7.995V254.2H253.225z M256.539,254.2h1.742c1.941,0,3.459-0.108,4.595-0.354
	c1.128-0.245,2.096-0.658,2.862-1.251c0.789-0.574,1.42-1.466,1.902-2.639c0.475-1.184,0.72-2.564,0.72-4.167
	c0-1.902-0.397-3.521-1.187-4.85c-0.799-1.326-1.812-2.186-3.047-2.594c-1.243-0.397-3.139-0.604-5.701-0.604h-1.887V254.2z"/>
<polygon fill="#717073" points="290.137,254.282 290.137,237.667 287.143,237.667 287.143,235.033 293.143,235.033 293.143,254.282 
	295.997,254.282 295.997,256.954 287.143,256.954 287.143,254.282 "/>
<path fill="#717073" d="M301.642,250.463h2.68c0.163,1.252,0.599,2.271,1.319,3.06c0.723,0.791,1.605,1.184,2.624,1.184
	c1.412,0,2.493-0.729,3.275-2.195c0.79-1.457,1.183-3.453,1.198-5.978c-1.482,1.618-3.193,2.433-5.142,2.433
	c-1.731,0-3.19-0.635-4.357-1.879c-1.166-1.249-1.749-2.899-1.749-4.939c0-2.066,0.591-3.829,1.766-5.303
	c1.182-1.466,2.792-2.193,4.839-2.193c2.294,0,4.114,0.934,5.487,2.815c1.365,1.871,2.047,4.673,2.047,8.371
	c0,3.521-0.666,6.319-1.978,8.378c-1.313,2.054-3.231,3.084-5.732,3.084c-1.948,0-3.466-0.646-4.558-1.934
	C302.279,254.076,301.703,252.442,301.642,250.463 M312.586,243.212c-0.455-3.975-1.897-5.962-4.352-5.962
	c-1.221,0-2.179,0.454-2.894,1.353c-0.696,0.891-1.052,2-1.052,3.306c0,1.18,0.309,2.187,0.938,2.978
	c0.623,0.804,1.533,1.205,2.716,1.205C309.498,246.091,311.042,245.131,312.586,243.212"/>
<path fill="#717073" d="M321.851,256.954v-2.672h2.917c0.168-2.828,0.82-5.791,1.973-8.883c1.166-3.102,2.423-5.617,3.78-7.543
	h-7.564v2.955h-2.716v-5.778h13.719v2.232c-1.42,1.719-2.785,4.312-4.073,7.81c-1.274,3.484-1.921,6.561-1.921,9.207h2.556v2.672
	H321.851z"/>
<path fill="#717073" d="M343.273,246.85v-2.715c1.548,0,2.668-0.087,3.36-0.269c0.696-0.18,1.233-0.538,1.634-1.068
	c0.382-0.529,0.583-1.196,0.583-2.01c0-0.983-0.284-1.819-0.867-2.531c-0.567-0.698-1.419-1.054-2.548-1.054
	c-1.24,0-2.139,0.369-2.707,1.115c-0.575,0.735-0.875,1.848-0.937,3.323h-3.038c0-2.533,0.615-4.322,1.863-5.396
	c1.252-1.059,2.77-1.587,4.582-1.587c2.201,0,3.865,0.536,4.971,1.618c1.112,1.081,1.688,2.47,1.688,4.149
	c0,1.236-0.322,2.287-0.965,3.139c-0.638,0.852-1.353,1.458-2.158,1.818c2.741,0.808,4.114,2.546,4.114,5.239
	c0,2.226-0.761,3.907-2.256,5.012c-1.497,1.104-3.263,1.665-5.271,1.665c-2.586,0-4.498-0.693-5.732-2.072
	c-1.236-1.381-1.855-3.283-1.855-5.709h2.906c0.047,1.68,0.514,2.969,1.389,3.859c0.859,0.884,2.019,1.328,3.461,1.328
	c1.312,0,2.346-0.361,3.1-1.099c0.752-0.719,1.136-1.647,1.136-2.768c0-1.168-0.454-2.127-1.329-2.87
	c-0.888-0.759-2.292-1.128-4.232-1.128C343.908,246.842,343.617,246.842,343.273,246.85"/>
<path fill="#717073" d="M10.902,191.564v-59.59H0v-9.944h32.268c6.744,0,12.1,0.537,16.059,1.582
	c3.952,1.042,7.234,3.244,9.829,6.62c2.585,3.367,3.874,7.572,3.874,12.59c0,10.518-5.455,17.125-16.365,19.832l14.032,28.91h9.705
	v9.934H52.192l-18.09-37.133H22.901v27.199h10.166v9.934H0v-9.934H10.902z M22.901,154.421h9.367c4.542,0,7.879-0.289,10.028-0.88
	c2.148-0.592,3.913-1.788,5.286-3.601c1.374-1.81,2.056-4.232,2.056-7.288c0-2.584-0.689-4.77-2.086-6.566
	c-1.388-1.789-3.107-2.924-5.141-3.399c-2.04-0.468-5.156-0.712-9.344-0.712H22.901V154.421z"/>
<path fill="#717073" d="M69.401,173.845c0-8.527,2.816-15.522,8.454-20.987c5.64-5.469,12.516-8.2,20.625-8.2
	c7.962,0,14.799,2.692,20.506,8.086c5.709,5.384,8.572,12.428,8.572,21.102c0,8.688-2.854,15.74-8.541,21.14
	c-5.693,5.409-12.536,8.116-20.537,8.116c-8.226,0-15.122-2.746-20.708-8.23C72.195,189.391,69.401,182.379,69.401,173.845
	 M80.886,173.823c0,5.457,1.704,9.931,5.109,13.421c3.407,3.483,7.573,5.231,12.484,5.231c4.994,0,9.167-1.763,12.543-5.294
	c3.368-3.521,5.056-7.97,5.056-13.358c0-5.419-1.719-9.889-5.141-13.394c-3.429-3.505-7.581-5.262-12.458-5.262
	c-5.103,0-9.307,1.801-12.621,5.378C82.543,164.136,80.886,168.549,80.886,173.823"/>
<path fill="#717073" d="M131.254,173.845c0-8.527,2.824-15.522,8.454-20.987c5.639-5.469,12.514-8.2,20.623-8.2
	c7.957,0,14.793,2.692,20.507,8.086c5.709,5.384,8.571,12.428,8.571,21.102c0,8.688-2.854,15.74-8.54,21.14
	c-5.692,5.409-12.535,8.116-20.538,8.116c-8.224,0-15.128-2.746-20.707-8.23C134.047,189.391,131.254,182.379,131.254,173.845
	 M142.739,173.823c0,5.457,1.695,9.931,5.11,13.421c3.407,3.483,7.565,5.231,12.483,5.231c4.996,0,9.169-1.763,12.538-5.294
	c3.367-3.521,5.056-7.97,5.056-13.358c0-5.419-1.711-9.889-5.15-13.394c-3.421-3.505-7.572-5.262-12.444-5.262
	c-5.101,0-9.313,1.801-12.619,5.378C144.397,164.136,142.739,168.549,142.739,173.823"/>
<path fill="#717073" d="M192.709,155.856v-9.658h7.203v-8.517l10.849-9.935v18.452h10.226v9.658h-10.226v26.845
	c0,4.312,0.237,6.958,0.712,7.973c0.475,1.004,1.673,1.513,3.574,1.513c2.02,0,3.998-0.377,5.939-1.144v9.888
	c-2.777,0.992-5.562,1.482-8.34,1.482c-3.312,0-6-0.737-8.055-2.203s-3.352-3.298-3.882-5.51c-0.537-2.209-0.798-6.021-0.798-11.423
	v-27.421H192.709z"/>
<path fill="#717073" d="M228.353,201.498v-18.965h9.704v1.825c0.346,2.594,1.75,4.729,4.197,6.4
	c2.463,1.681,5.363,2.517,8.716,2.517c3.505,0,6.306-0.614,8.401-1.827c2.092-1.229,3.135-2.914,3.135-5.087
	c0-2.094-0.858-3.637-2.599-4.625c-1.734-0.991-5.172-1.902-10.311-2.73c-7.62-1.291-13.06-3.383-16.312-6.251
	c-3.252-2.885-4.881-6.608-4.881-11.182c0-4.604,1.773-8.463,5.309-11.571c3.547-3.107,8.21-4.655,13.994-4.655
	c5.227,0,9.723,1.073,13.488,3.213v-2.361h9.652v18.343h-9.652v-3.376c-2.929-4.524-7.203-6.796-12.797-6.796
	c-2.854,0-5.207,0.62-7.059,1.864c-1.848,1.237-2.77,2.877-2.77,4.932c0,2.096,0.845,3.538,2.547,4.312
	c1.688,0.79,5.34,1.609,10.941,2.477c5.371,0.843,9.42,1.808,12.166,2.936c2.742,1.128,5.019,2.999,6.822,5.608
	c1.812,2.598,2.715,5.644,2.715,9.112c0,5.148-1.971,9.229-5.915,12.259c-3.933,3.03-9.052,4.544-15.337,4.544
	c-5.908,0-10.727-1.344-14.453-4.022v3.107H228.353z"/>
<path fill="#C9CACC" d="M288.791,200.884v-9.482h10.373c0.568-10.05,2.893-20.581,6.998-31.578
	c4.129-10.987,8.602-19.925,13.434-26.798h-26.869v10.494h-9.65v-20.537h48.742v7.965c-5.078,6.114-9.912,15.336-14.491,27.748
	c-4.551,12.374-6.822,23.302-6.822,32.706h9.091v9.482H288.791z"/>
<path fill="#C9CACC" d="M353.507,165.003v-9.652c5.487,0,9.46-0.323,11.94-0.958c2.492-0.63,4.41-1.912,5.799-3.791
	c1.389-1.887,2.086-4.271,2.086-7.149c0-3.477-1.02-6.452-3.077-8.953c-2.039-2.517-5.04-3.776-9.044-3.776
	c-4.406,0-7.619,1.313-9.637,3.967c-2.02,2.625-3.139,6.561-3.314,11.801h-10.81c0-8.984,2.194-15.359,6.628-19.167
	c4.435-3.789,9.859-5.676,16.281-5.676c7.826,0,13.718,1.918,17.677,5.776c3.956,3.843,5.944,8.77,5.944,14.761
	c0,4.382-1.121,8.116-3.399,11.139c-2.253,3.025-4.818,5.172-7.663,6.46c9.736,2.862,14.602,9.073,14.602,18.607
	c0,7.918-2.672,13.885-8.004,17.806c-5.31,3.943-11.568,5.915-18.735,5.915c-9.168,0-15.951-2.438-20.346-7.343
	c-4.396-4.894-6.593-11.668-6.593-20.296h10.322c0.176,5.987,1.816,10.553,4.908,13.707c3.084,3.161,7.188,4.733,12.307,4.733
	c4.671,0,8.34-1.28,11.018-3.897c2.67-2.594,4.012-5.877,4.012-9.853c0-4.155-1.58-7.56-4.711-10.215
	c-3.131-2.682-8.155-3.993-15.029-3.993C355.77,164.956,354.735,164.956,353.507,165.003"/>
<path fill="#717073" d="M310.544,67.734c-10.934-7.542-13.612-12.144-27.898-12.144c-14.277,0-15.457-3.169-22.2-9.914
	C240.22,20.29,227.124,1.655,202.935,0.073c-20.275-1.329-34.885,15.855-34.885,15.855c-1.995,0.798-9.062-0.79-18.451-1.584
	c-11.708-0.997-17.868,0.795-27.175,6.736c-16.365,10.497-17.83,23.802-17.83,23.802c0.046,3.404,6.912,8.438,11.101,10.708
	c3.684,1.995,4.489,0.537,12.691,2.377c10.319,2.308,14.27,5.157,16.663,6.742c2.38,1.592,4.765,1.592,3.162,2.78
	c-1.581,1.182-5.946,0-5.946,0c-7.135-1.587-13.48,1.182-16.258,2.774c-2.777,1.592-5.154,5.557-1.196,7.147
	c3.974,1.579,8.333,0,15.867-0.798c7.534-0.792,17.845-0.4,24.589,2.762c6.751,3.174,9.514-1.174,9.514-1.174
	c9.522-0.4,11.891-1.587,11.891-1.587c-6.729-11.5-2.369-19.44,0.408-23.791c2.777-4.367,11.882-15.476,11.882-15.476l1.605,1.587
	c-2.786,2.375-11.118,15.471-11.118,15.471c-7.917,11.103,2.786,24.178,2.786,24.178c-4.358-0.382-13.472,1.987-14.669,4.375
	c-1.19,2.369-1.987,5.546,0.782,7.923c2.777,2.388,11.9-1.977,15.076-2.769c3.185-0.798,5.165-1.977,7.144-1.195
	c1.979,0.79,20.612-1.59,26.964-2.777c6.339-1.182,9.905-3.959,9.905-3.959c6.23-1.035,16.856-4.963,23.286-1.987
	c12.964,5.97,23.639,6.989,32.375,7.958C320.356,89.179,320.609,74.692,310.544,67.734 M126.006,36.55l-0.797-2.772
	c3.177-1.59,3.975-2.379,5.954-0.795l0.805,2.382C131.968,35.366,127.587,37.743,126.006,36.55"/>
<path fill="#717073" d="M157.93,83.747c-24.597-3.178-27.958-5.348-31.333-9.331c-3.36-3.954-4.364-4.553-5.34-7.717l-2.777,0.79
	c0,0,2.294,4.581,4.994,6.997c-0.797-0.696-4.994-3.928-15.297-4.772c1.818-4.834,2.363-10.448-7.956-18.09
	c0,0-9.383,10.564,2.601,17.884c-3.33,0.016-7.149,0.253-11.493,0.823c-0.805-0.335-2.033-0.999-3.392-2.25
	c-0.843-0.782-6.75-10.303-17.055-0.591c0,0,2.847-0.836,5.355,0.991c2.894,2.108,4.22,3.951,6.752,4.248
	c-1.128,0.4-1.595,0.914-1.595,0.914c-5.955,4.359,1.396,14.469,1.396,14.469c0.39-2.178,3.758-3.766,3.758-3.766
	c9.521-4.372,5.149-9.521,3.769-10.907l-0.599-0.593c-0.031-0.008-0.047-0.008-0.093-0.016c3.852-0.56,11.632-1.319,19.719-0.093
	c-3.621,0.945-6.069,3.231-7.826,5.601c-0.208-2.101-0.937-2.142-6.437-3.322c0,0-1.588,5.624,4.357,6.623
	c-0.491,0.867-0.906,1.642-1.28,2.24c-7.757,1.495-9.622,2.248-9.622,8.997c0,0,2.57,5.348,2.364,8.525c0,0,6.344-0.4,9.728-7.74
	c0,0,2.884-4.414-0.63-9.292c1.036-1.618,2.517-4.266,4.842-6.568c-0.214,2.217,1.082,4.935,1.727,7.534
	c1.02,4.052-1.381,5.149-1.381,5.149c10.311-2.777,8.915-12.283,8.332-16.449c0,0-0.015-0.392-0.222-0.544
	c3.574,0.844,6.997,2.147,10.134,4.111c0,0,5.225,3.337,15.062,6.076c-3.868,0.33-7.879,1.097-11.517,2.256
	c-0.354-0.284-0.715-0.638-1.089-1.097c-0.477-0.576-3.354-7.139-10.757-1.895c0,0,1.894-0.268,3.298,1.105
	c1.843,1.772,2.471,3.154,4.48,3.399c-2.676,1.182-4.994,2.602-6.612,4.243l1.595,1.902c4.986-4.986,19.979-7.681,30.551-7.732
	c2.792,0.452,5.823,0.828,9.1,1.066c0,0,20.806,1.786,26.951,13.687c0,0,0.999,1.778,3.186,1.174l1.58-2.571
	C186.086,94.847,182.527,86.923,157.93,83.747 M84.362,72.529c0.085-0.016,3.384-1.817,4.803-1.381l-0.891,1.275
	C87.232,72.016,84.455,72.537,84.362,72.529"/>
</svg>
